<svg id="Capa_1" enable-background="new 0 0 512 512" height="512" viewBox="0 0 512 512" width="512" xmlns="http://www.w3.org/2000/svg"><g><g><circle cx="79.645" cy="107.702" fill="#c38c66" r="64.129"/><circle cx="432.355" cy="107.702" fill="#c38c66" r="64.129"/><path d="m384.258 99.686h-256.516c-66.408 0-120.242 53.834-120.242 120.242v.021c0 114.839 77.919 217.183 190.024 242.091 18.823 4.183 38.391 6.388 58.476 6.388s39.653-2.206 58.476-6.388c112.106-24.909 190.024-127.252 190.024-242.092v-.021c0-66.407-53.835-120.241-120.242-120.241z" fill="#966a5b"/><path d="m359.111 352.943c-.159-.819-.339-1.63-.537-2.434-2.658-10.773-12.323-18.355-23.419-18.355h-158.31c-11.096 0-20.761 7.583-23.419 18.355-.198.804-.377 1.616-.537 2.434-6.993 35.933 20.338 67.388 55.014 67.388 12.58 0 24.173-4.154 33.516-11.155 8.688-6.512 20.474-6.512 29.162 0 9.343 7.001 20.936 11.155 33.516 11.155 34.676 0 62.006-31.455 55.014-67.388z" fill="#c38c66"/><path d="m213.81 333.357 24.45 34.23c8.694 12.172 26.785 12.172 35.479 0l24.45-34.23c5.153-7.215-.004-17.236-8.87-17.236h-66.64c-8.865 0-14.022 10.021-8.869 17.236z" fill="#e5646e"/><circle cx="143.774" cy="251.992" fill="#4b3f4e" r="24.048"/><circle cx="149.786" cy="245.98" fill="#fff" r="9.018"/><circle cx="368.226" cy="251.992" fill="#4b3f4e" r="24.048"/><circle cx="374.238" cy="245.98" fill="#fff" r="9.018"/><path d="m338.524 454.023c-18.823 4.183-38.391 6.388-58.476 6.388-20.084 0-39.653-2.206-58.476-6.388-112.105-24.908-190.024-127.252-190.024-242.091v-.021c0-48.699 29.005-90.538 70.634-109.442-54.118 11.727-94.682 59.829-94.682 117.459v.021c0 114.839 77.919 217.183 190.024 242.091 18.823 4.183 38.391 6.388 58.476 6.388s39.653-2.206 58.476-6.388c12.104-2.689 23.781-6.333 35.033-10.745-3.626.988-7.284 1.906-10.985 2.728z" fill="#785353"/></g><g><path d="m490.726 149.196c8.567-12.058 13.258-26.633 13.258-41.494 0-39.497-32.133-71.629-71.629-71.629-33.816 0-62.79 23.696-69.943 56.113h-212.824c-7.153-32.417-36.127-56.113-69.943-56.113-39.496 0-71.629 32.133-71.629 71.629 0 14.907 4.719 29.527 13.337 41.607-13.483 20.246-21.353 44.538-21.353 70.639 0 57.553 19.374 114.153 54.553 159.375 35.56 45.71 85.757 77.687 141.345 90.038 19.611 4.357 39.833 6.567 60.103 6.567s40.492-2.209 60.103-6.567c55.588-12.351 105.785-44.328 141.345-90.038 35.177-45.222 54.551-101.822 54.551-159.395 0-25.702-7.507-50.097-21.274-70.732zm-467.71-41.494c0-31.225 25.404-56.629 56.629-56.629 25.595 0 47.67 17.169 54.469 41.113h-6.372c-38.646 0-73.337 17.253-96.781 44.462-5.212-8.709-7.945-18.578-7.945-28.946zm422.591 262.41c-33.421 42.963-80.569 73.01-132.759 84.605-37.089 8.241-76.608 8.241-113.697 0-52.189-11.596-99.337-41.643-132.759-84.605-33.141-42.601-51.392-95.93-51.392-150.184 0-62.166 50.576-112.742 112.742-112.742h256.517c14.054 0 27.76 2.552 40.74 7.583 3.862 1.497 8.206-.42 9.704-4.282s-.419-8.207-4.282-9.704c-14.715-5.705-30.246-8.598-46.162-8.598h-6.372c6.798-23.944 28.873-41.113 54.469-41.113 31.225 0 56.629 25.404 56.629 56.629 0 10.331-2.713 20.165-7.889 28.85-5.821-6.722-12.392-12.908-19.675-18.437-3.298-2.504-8.005-1.859-10.508 1.44-2.504 3.299-1.859 8.004 1.44 10.508 28.374 21.538 44.647 54.292 44.647 89.886 0 54.234-18.251 107.563-51.393 150.164z"/><path d="m365.855 348.712c-3.496-14.165-16.12-24.059-30.701-24.059h-27.579c-.272-2.073-.901-4.12-1.895-6.052-3.168-6.156-9.438-9.98-16.361-9.98h-66.64c-6.923 0-13.193 3.824-16.361 9.98s-2.636 13.48 1.388 19.114l24.45 34.23c5.57 7.798 14.26 12.27 23.843 12.27s18.273-4.472 23.843-12.27l23.066-32.292h32.246c7.663 0 14.299 5.203 16.138 12.654.168.683.321 1.372.456 2.067 2.848 14.633-.84 29.48-10.117 40.736-9.28 11.261-22.962 17.719-37.536 17.719-10.554 0-20.588-3.339-29.018-9.657-11.412-8.552-26.746-8.553-38.158 0-8.43 6.317-18.464 9.657-29.018 9.657-14.574 0-28.255-6.458-37.536-17.719-9.277-11.256-12.964-26.104-10.117-40.737.135-.695.288-1.384.457-2.069 1.838-7.45 8.474-12.652 16.137-12.652h3.001c4.142 0 7.5-3.358 7.5-7.5s-3.358-7.5-7.5-7.5h-3.001c-14.581 0-27.205 9.894-30.7 24.056-.229.924-.437 1.867-.618 2.801-3.707 19.046 1.128 38.416 13.265 53.142 12.141 14.73 30.041 23.179 49.111 23.179 13.823 0 26.968-4.375 38.014-12.654 6.03-4.52 14.135-4.52 20.167 0 11.045 8.278 24.19 12.654 38.013 12.654 19.07 0 36.971-8.449 49.111-23.179 12.136-14.726 16.971-34.095 13.265-53.141-.179-.934-.387-1.877-.615-2.798zm-98.218 14.516c-2.718 3.806-6.96 5.988-11.637 5.988s-8.918-2.183-11.637-5.988l-24.45-34.23c-1.049-1.468-.611-2.843-.256-3.532.354-.688 1.218-1.844 3.023-1.844h66.64c1.805 0 2.669 1.155 3.023 1.844s.793 2.064-.256 3.533z"/><path d="m175.323 251.992c0-4.143-3.358-7.5-7.5-7.5s-7.5 3.357-7.5 7.5c0 9.125-7.423 16.548-16.548 16.548s-16.549-7.423-16.549-16.548 7.424-16.549 16.549-16.549c4.142 0 7.5-3.357 7.5-7.5 0-4.142-3.358-7.5-7.5-7.5-17.396 0-31.549 14.153-31.549 31.549s14.153 31.548 31.549 31.548 31.548-14.152 31.548-31.548z"/><path d="m392.274 244.492c-4.142 0-7.5 3.357-7.5 7.5 0 9.125-7.424 16.548-16.549 16.548s-16.548-7.423-16.548-16.548 7.423-16.549 16.548-16.549c4.142 0 7.5-3.357 7.5-7.5 0-4.142-3.358-7.5-7.5-7.5-17.396 0-31.548 14.153-31.548 31.549s14.152 31.548 31.548 31.548 31.549-14.152 31.549-31.548c0-4.142-3.357-7.5-7.5-7.5z"/></g></g></svg>